<?xml version="1.0" encoding="UTF-8"?>
<svg xmlns="http://www.w3.org/2000/svg" xmlns:xlink="http://www.w3.org/1999/xlink" width="45pt" height="44.999999pt" viewBox="0 0 45 44.999999" version="1.2">
<defs>
<clipPath id="clip1">
  <path d="M 2.566406 0.40625 L 42.316406 0.40625 L 42.316406 44.65625 L 2.566406 44.65625 Z M 2.566406 0.40625 "/>
</clipPath>
</defs>
<g id="surface1">
<g clip-path="url(#clip1)" clip-rule="nonzero">
<path style=" stroke:none;fill-rule:nonzero;fill:rgb(0%,0%,0%);fill-opacity:1;" d="M 42.316406 1.910156 L 42.316406 43.15625 C 42.316406 43.984375 41.648438 44.652344 40.824219 44.652344 L 21.285156 44.652344 C 20.460938 44.652344 19.792969 43.984375 19.792969 43.15625 L 19.792969 40.007812 C 19.867188 40.007812 19.941406 40.007812 20.015625 40.007812 C 21.488281 40.007812 22.898438 39.871094 24.246094 39.597656 C 25.59375 39.324219 26.851562 38.945312 28.019531 38.460938 C 29.1875 37.980469 30.277344 37.417969 31.289062 36.773438 C 32.296875 36.128906 33.21875 35.453125 34.050781 34.746094 L 34.050781 20.554688 L 22.695312 20.554688 L 22.695312 25.71875 L 28.332031 25.71875 L 28.332031 32.078125 C 27.304688 32.855469 26.097656 33.476562 24.703125 33.945312 C 23.308594 34.414062 21.8125 34.648438 20.207031 34.648438 C 20.070312 34.648438 19.929688 34.648438 19.792969 34.644531 L 19.792969 10.511719 C 20.804688 10.519531 21.738281 10.605469 22.585938 10.777344 C 23.46875 10.953125 24.277344 11.195312 25.015625 11.5 C 25.753906 11.808594 26.457031 12.1875 27.132812 12.636719 C 27.804688 13.085938 28.460938 13.585938 29.101562 14.132812 L 32.851562 9.644531 C 31.984375 8.902344 31.09375 8.25 30.183594 7.6875 C 29.269531 7.125 28.300781 6.652344 27.273438 6.265625 C 26.25 5.878906 25.136719 5.582031 23.933594 5.371094 C 22.734375 5.164062 21.394531 5.058594 19.921875 5.058594 C 19.878906 5.058594 19.835938 5.058594 19.792969 5.058594 L 19.792969 1.910156 C 19.792969 1.082031 20.460938 0.414062 21.285156 0.414062 L 40.824219 0.414062 C 41.648438 0.414062 42.316406 1.082031 42.316406 1.910156 Z M 11.917969 14.042969 C 12.894531 12.949219 14.046875 12.085938 15.378906 11.457031 C 16.707031 10.828125 18.140625 10.511719 19.679688 10.511719 C 19.71875 10.511719 19.753906 10.511719 19.792969 10.511719 L 19.792969 5.058594 C 17.308594 5.074219 15.019531 5.539062 12.925781 6.457031 C 10.792969 7.390625 8.960938 8.652344 7.421875 10.246094 C 5.882812 11.839844 4.691406 13.699219 3.839844 15.824219 C 2.992188 17.945312 2.566406 20.199219 2.566406 22.582031 C 2.566406 25.058594 2.984375 27.359375 3.816406 29.484375 C 4.648438 31.609375 5.828125 33.449219 7.351562 35.011719 C 8.871094 36.574219 10.707031 37.796875 12.855469 38.679688 C 14.9375 39.539062 17.253906 39.980469 19.792969 40.007812 L 19.792969 34.644531 C 18.226562 34.597656 16.804688 34.292969 15.523438 33.730469 C 14.128906 33.117188 12.925781 32.269531 11.917969 31.191406 C 10.90625 30.113281 10.128906 28.828125 9.585938 27.34375 C 9.039062 25.863281 8.769531 24.25 8.769531 22.507812 C 8.769531 20.863281 9.046875 19.316406 9.609375 17.867188 C 10.171875 16.414062 10.9375 15.140625 11.917969 14.042969 "/>
</g>
</g>
</svg>
